<mxfile host="Electron" modified="2024-10-31T07:29:13.460Z" agent="Mozilla/5.0 (X11; Linux x86_64) AppleWebKit/537.36 (KHTML, like Gecko) draw.io/24.4.0 Chrome/122.0.6261.156 Electron/29.4.4 Safari/537.36" etag="mEHluFJMHhnWdTIriZRt" version="24.3.1" type="device">
  <diagram name="Page-1" id="WwfLBa-Y17-9DSZX8frn">
    <mxGraphModel dx="849" dy="626" grid="1" gridSize="10" guides="1" tooltips="1" connect="1" arrows="1" fold="1" page="1" pageScale="1" pageWidth="850" pageHeight="1100" math="0" shadow="0">
      <root>
        <mxCell id="0" />
        <mxCell id="1" parent="0" />
        <mxCell id="RWXxfn7ORbIsKhEqfq4H-1" value="GroupID" style="rounded=1;whiteSpace=wrap;html=1;fillColor=#dae8fc;strokeColor=#6c8ebf;align=center;fontFamily=mono;" parent="1" vertex="1">
          <mxGeometry x="180" y="80" width="60" height="20" as="geometry" />
        </mxCell>
        <mxCell id="RWXxfn7ORbIsKhEqfq4H-2" value="MemberID" style="rounded=1;whiteSpace=wrap;html=1;fillColor=#d5e8d4;strokeColor=#82b366;align=center;fontFamily=mono;" parent="1" vertex="1">
          <mxGeometry x="240" y="80" width="60" height="20" as="geometry" />
        </mxCell>
        <mxCell id="RWXxfn7ORbIsKhEqfq4H-7" value="&lt;b&gt;AIA&#39;s hartIndex&lt;/b&gt;" style="text;html=1;align=center;verticalAlign=middle;whiteSpace=wrap;rounded=0;" parent="1" vertex="1">
          <mxGeometry x="180" y="110" width="120" height="20" as="geometry" />
        </mxCell>
      </root>
    </mxGraphModel>
  </diagram>
</mxfile>
